<?xml version="1.0" encoding="iso-8859-1"?>
<!-- Generator: Adobe Illustrator 17.1.0, SVG Export Plug-In . SVG Version: 6.00 Build 0)  -->
<!DOCTYPE svg PUBLIC "-//W3C//DTD SVG 1.1//EN" "http://www.w3.org/Graphics/SVG/1.1/DTD/svg11.dtd">
<svg version="1.1" id="Capa_1" xmlns="http://www.w3.org/2000/svg" xmlns:xlink="http://www.w3.org/1999/xlink" x="0px" y="0px"
	 viewBox="0 0 182 182" style="enable-background:new 0 0 182 182;" xml:space="preserve">
<path d="M182,91.356v67.436c0,8.156-6.635,14.792-14.792,14.792H14.792C6.635,173.583,0,166.948,0,158.792V91.356l74.817,18.052
	v18.804c0,2.761,2.239,5,5,5h22.365c2.761,0,5-2.239,5-5v-18.804L182,91.356z M182,55.375v25.694l-74.817,18.052v-1.416
	c0-2.761-2.239-5-5-5H79.817c-2.761,0-5,2.239-5,5v1.416L0,81.069V55.375c0-8.156,6.635-14.792,14.792-14.792h39.453V29.67
	c0-11.719,9.534-21.253,21.253-21.253h31.006c11.719,0,21.253,9.534,21.253,21.253v10.914h39.453
	C175.365,40.583,182,47.219,182,55.375z M64.244,40.583h53.512V29.67c0-6.205-5.048-11.253-11.253-11.253H75.497
	c-6.205,0-11.253,5.048-11.253,11.253V40.583z"/>
<g>
</g>
<g>
</g>
<g>
</g>
<g>
</g>
<g>
</g>
<g>
</g>
<g>
</g>
<g>
</g>
<g>
</g>
<g>
</g>
<g>
</g>
<g>
</g>
<g>
</g>
<g>
</g>
<g>
</g>
</svg>
