<?xml version="1.0" encoding="iso-8859-1"?>
<!-- Generator: Adobe Illustrator 16.0.0, SVG Export Plug-In . SVG Version: 6.00 Build 0)  -->
<!DOCTYPE svg PUBLIC "-//W3C//DTD SVG 1.1//EN" "http://www.w3.org/Graphics/SVG/1.1/DTD/svg11.dtd">
<svg version="1.1" id="Capa_1" xmlns="http://www.w3.org/2000/svg" xmlns:xlink="http://www.w3.org/1999/xlink" x="0px" y="0px"
	 width="495.667px" height="495.667px" viewBox="0 0 495.667 495.667" style="enable-background:new 0 0 495.667 495.667;"
	 xml:space="preserve">
<g>
	<g>
		<path fill="red" d="M495.666,193.792l-49.997-54.281l-46.266-88.144H96.262l-46.265,88.141L0,193.792v159.114v12.072v56.627
			C0,434.137,10.159,444.3,22.695,444.3h72.619c12.533,0,22.694-10.163,22.694-22.695v-56.627h259.651v56.627
			c0,12.532,10.159,22.695,22.694,22.695h72.619c12.533,0,22.694-10.163,22.694-22.695v-56.627l0,0L495.666,193.792L495.666,193.792
			z M123.737,83.451h248.192l41.637,80.298H82.101L123.737,83.451z M143.439,325.492H44.554v-51.984h98.885V325.492L143.439,325.492
			z M451.111,325.492h-98.887v-51.984h98.887V325.492L451.111,325.492z"/>
	</g>
</g>
<g>
</g>
<g>
</g>
<g>
</g>
<g>
</g>
<g>
</g>
<g>
</g>
<g>
</g>
<g>
</g>
<g>
</g>
<g>
</g>
<g>
</g>
<g>
</g>
<g>
</g>
<g>
</g>
<g>
</g>
</svg>
