<?xml version="1.0" encoding="iso-8859-1"?>
<!-- Generator: Adobe Illustrator 16.0.0, SVG Export Plug-In . SVG Version: 6.00 Build 0)  -->
<!DOCTYPE svg PUBLIC "-//W3C//DTD SVG 1.1//EN" "http://www.w3.org/Graphics/SVG/1.1/DTD/svg11.dtd">
<svg version="1.1" id="Capa_1" xmlns="http://www.w3.org/2000/svg" xmlns:xlink="http://www.w3.org/1999/xlink" x="0px" y="0px"
	 width="486.791px" height="486.791px" viewBox="0 0 486.791 486.791" style="enable-background:new 0 0 486.791 486.791;"
	 xml:space="preserve">
<g>
	<g>
		<polygon points="85.256,113.862 85.256,243.395 91.741,243.395 135.953,243.395 149.039,243.395 149.039,256.48 149.039,282.984 
			165.021,282.984 165.021,256.48 165.021,243.395 178.107,243.395 222.319,243.395 235.404,243.395 235.404,256.48 
			235.404,282.984 251.387,282.984 251.387,256.48 251.387,243.395 264.473,243.395 308.686,243.395 321.771,243.395 
			321.771,256.48 321.771,282.984 337.754,282.984 337.754,256.48 337.754,243.395 350.84,243.395 395.051,243.395 401.533,243.395 
			401.533,113.862 380.588,113.862 380.588,141.886 350.748,141.886 350.748,113.862 319.451,113.862 319.451,141.886 
			289.611,141.886 289.611,113.862 263.023,113.862 263.023,0 223.767,0 223.767,113.862 197.179,113.862 197.179,141.886 
			167.338,141.886 167.338,113.862 136.041,113.862 136.041,141.886 106.201,141.886 106.201,113.862 		"/>
		<polygon points="466.793,256.48 437.205,256.48 437.205,296.07 401.533,296.07 395.051,296.07 395.051,256.48 350.84,256.48 
			350.84,296.07 308.686,296.07 308.686,256.48 264.473,256.48 264.473,296.07 222.319,296.07 222.319,256.48 178.107,256.48 
			178.107,296.07 135.953,296.07 135.953,256.48 91.741,256.48 91.741,296.07 85.256,296.07 49.587,296.07 49.587,256.48 
			19.998,256.48 19.998,486.791 190.078,486.791 190.078,395.189 307.316,395.189 307.316,486.791 466.793,486.791 		"/>
		<polygon points="284.266,11.398 284.266,93.291 412.564,52.343 		"/>
	</g>
</g>
<g>
</g>
<g>
</g>
<g>
</g>
<g>
</g>
<g>
</g>
<g>
</g>
<g>
</g>
<g>
</g>
<g>
</g>
<g>
</g>
<g>
</g>
<g>
</g>
<g>
</g>
<g>
</g>
<g>
</g>
</svg>
