<?xml version="1.0" encoding="iso-8859-1"?>
<!-- Generator: Adobe Illustrator 16.0.0, SVG Export Plug-In . SVG Version: 6.00 Build 0)  -->
<!DOCTYPE svg PUBLIC "-//W3C//DTD SVG 1.1//EN" "http://www.w3.org/Graphics/SVG/1.1/DTD/svg11.dtd">
<svg version="1.1" id="Capa_1" xmlns="http://www.w3.org/2000/svg" xmlns:xlink="http://www.w3.org/1999/xlink" x="0px" y="0px"
	 width="485.74px" height="485.74px" viewBox="0 0 485.74 485.74" style="enable-background:new 0 0 485.74 485.74;"
	 xml:space="preserve">
<g>
	<g>
		<path d="M405.785,168.88c14.918-14.617,24.179-34.987,24.179-57.522c0-4.226-0.328-8.375-0.955-12.425l-49.222,14.114
			l-6.908,7.955L405.785,168.88z"/>
		<path d="M361.857,31.777v57.227h11.597l47.974-13.756C409.966,52.439,387.99,35.825,361.857,31.777z"/>
		<path d="M311.485,182.395c11.307,6.053,24.221,9.497,37.942,9.497c12.994,0,25.269-3.082,36.137-8.548l-30.562-44.467
			L311.485,182.395z"/>
		<path d="M337,31.777c-24.942,3.864-46.099,19.175-57.941,40.395l50.307,16.832H337V31.777z"/>
		<path d="M428.168,32.616C407.136,11.583,379.172,0,349.428,0s-57.708,11.583-78.741,32.616
			c-15.661,15.661-26.079,35.167-30.379,56.388h20.417c10-39.667,45.977-69.119,88.705-69.119c50.438,0,91.472,41.034,91.472,91.472
			s-41.034,91.472-91.472,91.472c-16.744,0-32.449-4.527-45.964-12.414l-14.493,14.493c17.851,11.586,38.675,17.806,60.457,17.806
			c29.744,0,57.708-11.583,78.74-32.615c21.033-21.033,32.616-48.997,32.616-78.741C460.785,81.612,449.202,53.649,428.168,32.616z"
			/>
		<polygon points="209.68,454.311 209.68,258.165 355.25,112.595 355.25,101.835 24.955,101.835 24.955,112.595 170.527,258.165 
			170.527,454.311 116.985,454.311 105.469,485.74 274.737,485.74 263.222,454.311 		"/>
		<polygon points="140.378,89.004 69.812,18.437 55.668,32.579 112.094,89.004 		"/>
	</g>
</g>
<g>
</g>
<g>
</g>
<g>
</g>
<g>
</g>
<g>
</g>
<g>
</g>
<g>
</g>
<g>
</g>
<g>
</g>
<g>
</g>
<g>
</g>
<g>
</g>
<g>
</g>
<g>
</g>
<g>
</g>
</svg>
